<?xml version="1.0" encoding="UTF-8"?>
<svg id="Vector_layer" data-name="Vector layer" xmlns="http://www.w3.org/2000/svg" xmlns:xlink="http://www.w3.org/1999/xlink" viewBox="0 0 1361.36 900.25">
  <defs>
    <style>
      .cls-1 {
        fill: #fff;
      }

      .cls-2 {
        fill: url(#linear-gradient);
      }

      .cls-3 {
        fill: #e5afe9;
      }
    </style>
    <linearGradient id="linear-gradient" x1="680.65" y1="885.58" x2="680.65" y2="16.04" gradientUnits="userSpaceOnUse">
      <stop offset="0" stop-color="#eabfed"/>
      <stop offset=".3" stop-color="#eecef1"/>
      <stop offset=".88" stop-color="#fbf5fc"/>
      <stop offset="1" stop-color="#fff"/>
    </linearGradient>
  </defs>
  <path class="cls-3" d="m162.94,782.39c-5.5-.02-10.98-.66-16.38-1.7-15.36-2.95-30.32-8.25-44.3-15.23-15.52-7.75-29.83-17.65-42.64-29.35-12.6-11.51-23.56-24.92-32.46-39.47-8.9-14.55-15.8-30.34-20.38-46.78C2.17,633.31-.13,616.05,0,598.86c.14-17.57,2.73-35.14,7.82-51.96,5.18-17.12,12.81-33.44,22.64-48.38,10.33-15.7,23.06-29.66,37.58-41.59,13.96-11.46,29.79-20.83,46.51-27.66,8.29-3.38,16.83-6.18,25.52-8.3,8.8-2.16,17.79-3.79,26.82-4.59,9.3-.83,18.61-1.05,27.93-.51,1.76.1,3.52.23,5.27.38h0c1.14.1,2.29.21,3.43.32.02,0,.04,0,.05,0,.14.02.28.03.41.04.09.01.17.02.26.03.05,0,.11.01.16.02.56.06,1.12.12,1.68.19.01,0,.02,0,.04,0,.14.02.28.04.43.05,0,0,.01,0,.02,0,.28.03.57.07.85.1.02,0,.03,0,.04,0,.09.01.19.02.29.04.08.01.16.02.25.03s.16.02.25.03c.11.01.21.03.31.04.07,0,.13.02.19.02l.52.07c4.62.61,9.2,1.47,13.77,2.41,17.81,3.67,35.04,10.35,50.92,19.15,7.43,4.11,14.59,8.75,21.38,13.85,7.25,5.46,14.06,11.48,20.45,17.91,3.29,3.32,6.47,6.77,9.37,10.44,3.06,3.88,5.86,7.96,8.44,12.18,4.62,7.56,8.24,15.67,11.11,24.04,1.28,3.75,2.39,7.55,3.33,11.39.6,2.45,1.07,4.92,1.54,7.4h0c.04.09-.04.17-.12.19,0,0,0,0,0,0-.05,0-.12,0-.15-.07-.47-.87-1.09-1.69-1.63-2.52-1-1.54-2.02-3.06-2.92-4.4-.11-.16-.23-.34-.34-.5-7.43-10.93-15.73-21.2-24.38-31.17-.19-.22-.38-.43-.57-.65-3.66-4.12-7.37-8.21-11.13-12.24-3.64-3.89-7.5-7.58-11.48-11.13-5.67-4.94-11.62-9.52-17.84-13.75-5.73-3.8-11.65-7.26-17.77-10.39-6.61-3.27-13.39-6.14-20.33-8.62-7.15-2.44-14.41-4.45-21.79-6.02-7.54-1.5-15.12-2.54-22.79-3.11-5.18-.31-10.36-.4-15.54-.28-.03,0-.07,0-.11,0-.21,0-.41.01-.62.02-2.22.06-4.44.16-6.66.3-.21.02-.43.03-.65.05-4.27.34-8.52.82-12.75,1.44-.06,0-.13.02-.19.03-.12.02-.24.04-.36.05-.47.07-.95.14-1.42.22-.06,0-.12.02-.18.03-.03,0-.07.01-.11.02-2.34.37-4.67.79-6.99,1.25-1.57.34-3.14.69-4.7,1.07-.02,0-.04,0-.06.01-.16.04-.32.08-.48.12-.11.03-.23.06-.34.08-.05.01-.09.02-.14.03-2.38.59-4.75,1.23-7.1,1.91-.08.02-.16.05-.24.07-.14.04-.29.08-.43.13-.14.04-.28.08-.41.12-.08.02-.16.05-.24.07-.17.05-.33.1-.5.15-.05.01-.1.03-.14.04-.19.06-.38.12-.57.17,0,0,0,0,0,0-.58.18-1.17.36-1.75.54-.09.03-.18.06-.27.09-.1.03-.2.06-.3.1-.15.05-.31.1-.46.15-.06.02-.12.04-.18.06-.98.32-1.97.64-2.94.98-3.66,1.3-7.27,2.72-10.83,4.24-.02,0-.03.01-.05.02-.23.1-.46.2-.69.3-.16.07-.33.14-.49.21-.05.02-.1.04-.15.07-2.51,1.09-5,2.24-7.47,3.44-.21.1-.42.2-.62.31-2.58,1.32-5.14,2.69-7.65,4.12-2.53,1.44-5.02,2.93-7.48,4.48-1.24.78-2.47,1.58-3.68,2.39-6.04,4.13-11.82,8.59-17.33,13.4-3.28,2.93-6.45,5.97-9.5,9.12-1.81,1.86-3.58,3.76-5.31,5.69-4.79,5.5-9.24,11.25-13.36,17.27-4.05,6.08-7.74,12.38-11.05,18.89-3.19,6.46-6,13.1-8.41,19.89-2.45,7.14-4.46,14.41-6.02,21.8-1.48,7.44-2.5,14.94-3.07,22.51-.48,7.73-.48,15.46.01,23.18l.02.19c.03.44.07.89.11,1.33,0,.09.01.18.02.27.03.3.05.61.08.91,0,0,0,0,0,0,.58,6.33,1.51,12.6,2.74,18.84,1.56,7.5,3.58,14.87,6.05,22.11,1.67,4.71,3.52,9.33,5.56,13.87.51,1.14,1.04,2.28,1.57,3.41.06.12.11.24.17.36.02.03.03.06.05.1.39.81.78,1.62,1.18,2.43.67,1.32,1.36,2.63,2.06,3.94,2.77,5.14,5.78,10.15,9.04,15,1.62,2.36,3.29,4.68,5.01,6.96.01.01.02.03.03.04.12.15.23.3.35.46.04.06.09.12.14.18.08.11.17.22.25.33.1.14.21.27.31.41.02.03.05.06.07.09.24.32.49.63.73.95.03.04.06.08.1.12.05.06.1.12.15.19,1.87,2.39,3.8,4.73,5.8,7.02,1.76,1.98,3.56,3.92,5.4,5.82.07.08.15.16.23.23,0,0,.01.01.02.02,0,0,.01.01.02.02.18.19.37.38.55.57.04.04.08.08.12.12.15.15.3.31.45.46.18.18.35.36.53.53.03.03.05.05.08.08,1.14,1.14,2.29,2.27,3.46,3.37.28.27.57.54.86.81.01.01.03.03.04.04.14.13.29.27.43.4.02.02.05.05.07.07.98.91,1.96,1.81,2.96,2.69,5.47,4.78,11.21,9.22,17.21,13.31,6.04,4.04,12.3,7.7,18.73,10.96,3.33,1.64,6.7,3.19,10.11,4.64,2.16.91,4.34,1.79,6.53,2.62,1.37.52,2.75,1.03,4.13,1.52.63.21,1.26.43,1.89.63,6.08,2.01,12.25,3.68,18.48,5.15,2.78.65,5.56,1.27,8.34,1.91.13.03.26.06.39.09.09.02.17.04.25.06.21.05.43.1.64.15.06.02.12.03.18.04.22.05.44.11.66.16.07.02.13.03.2.05.16.04.32.07.48.11.14.04.29.07.44.11l.35.08c1.1.27,2.19.54,3.29.82,1.01.26,1.99.63,2.99.92,1.2.35,2.4.68,3.6,1.05,2.9.88,6.05,1.1,8.23,2.59,1.43.87,4,1.8,3.06,4-.53,1.23-2,1.69-3.15,2.23-.38.2-.75.41-1.14.55-.95.34-1.89.53-2.88.68-1.65.25-3.32.34-4.98.57-1.33.18-2.66.29-4,.39-1.37.11-2.72.26-4.09.26h-.1Z"/>
  <path class="cls-3" d="m349.73,806.42c1.66,2.15,1.2,4.95-.21,7.07-.81,1.23-1.71,2.37-2.66,3.49-1.01,1.2-2.07,2.34-3.17,3.43-1.51,1.5-3.11,2.9-4.79,4.25-7.22,5.78-15.55,10.34-24.09,13.84-13.66,5.59-28.36,8.43-43.08,8.43h-.09c-4.59,0-9.19-.28-13.76-.84-19.7-2.41-38.7-10.06-54.58-21.95-14.76-11.05-26.62-25.56-34.68-42.11-.19-.39-.38-.77-.56-1.16-1.88-3.97-3.52-8.06-4.93-12.24h0s0,0,0,0h0c-4.38-13.04-6.41-26.96-5.83-40.64.42-9.82,1.98-19.52,4.8-28.95,3.02-10.08,7.39-19.83,13.4-28.48,2.65-3.82,5.67-7.41,8.97-10.73,3.3-3.32,6.88-6.36,10.66-9.06,7.31-5.25,15.38-9.34,23.95-12.09.93-.3,1.88-.57,2.81-.84,0,0,.01,0,.01,0,0,0,0,.01,0,.02-.53.44-1.04.9-1.51,1.31-1.13,1-2.24,2.01-3.34,3.04-1.14,1.07-2.26,2.16-3.36,3.26,0,0,0,0-.01,0-.05.05-.09.09-.14.14-.38.38-.77.77-1.14,1.16-1.72,1.76-3.41,3.56-5.05,5.39-4.27,4.89-8.23,10.02-11.89,15.38-4.33,6.47-8.14,13.24-11.69,20.16-1.01,2.05-1.96,4.13-2.84,6.24-.78,1.86-1.51,3.73-2.2,5.63-1.45,4.29-2.64,8.63-3.58,13.06-.82,4.27-1.39,8.57-1.73,12.91-.26,4.47-.27,8.94,0,13.41.34,4.38.93,8.71,1.77,13.02.16.75.33,1.49.5,2.23.27,1.14.55,2.27.85,3.39.02.07.04.14.06.22,0,0,0,.01,0,.02.02.08.04.16.07.25l.13.47c.03.09.05.19.08.28,0,.02,0,.04.02.05.29,1.03.59,2.05.91,3.07,0,.03.02.05.02.08.01.04.03.09.04.13.23.73.47,1.46.71,2.19,1.49,4.21,3.21,8.31,5.19,12.31.12.23.23.45.36.68.02.04.04.09.07.12,0,.01.01.02.02.04.45.84.9,1.68,1.36,2.52h.01c.09.18.18.34.27.5.04.07.07.13.11.2.04.07.09.14.12.22,1.21,2.12,2.48,4.2,3.82,6.23.07.11.14.22.21.33.29.43.59.85.89,1.27,1,1.41,2.03,2.8,3.09,4.16,0,0,0,.01.01.02.09.12.18.23.28.35.06.08.12.16.18.24.01.02.03.03.04.05,1.05,1.34,2.14,2.65,3.25,3.94,2.8,3.12,5.76,6.08,8.88,8.88,3.2,2.77,6.54,5.34,10.02,7.74,3.51,2.33,7.14,4.45,10.89,6.38,3.84,1.89,7.78,3.56,11.8,5.01,4.3,1.46,8.67,2.66,13.11,3.6,4.26.82,8.54,1.39,12.87,1.73,4.52.27,9.05.27,13.57,0,4.49-.35,8.95-.95,13.37-1.82,4.27-.91,8.46-2.06,12.6-3.45,4.36-1.54,8.6-3.34,12.75-5.38,5.8-2.96,11.26-6.43,16.71-10,.09-.06.18-.12.27-.18h0s0,0,0,0t0,0c1.8-1.18,3.65-2.29,5.48-3.42.74-.46,1.49-.9,2.26-1.31,2.36-1.25,5.53-1.12,7.27,1.13Z"/>
  <path class="cls-3" d="m710.66,830.58c.68,1.99-.92,3.57-2.09,4.93-.46.54-.89,1.09-1.32,1.65-.4.53-.79,1.06-1.19,1.59-1.02,1.35-2.21,2.56-3.36,3.8-1.15,1.25-2.31,2.48-3.49,3.7-2.76,2.84-5.79,5.32-8.92,7.73-4.13,3.16-8.38,6.14-12.75,8.98-16.26,10.56-34.12,18.54-52.55,24.5-18.84,6.09-38.34,9.89-58.05,11.64-8.62.77-17.26,1.14-25.91,1.14-11.29,0-22.57-.64-33.8-1.91-10.34-1.17-20.59-2.96-30.75-5.2-10-2.2-19.91-4.86-29.62-8.11-1.64-.55-3.28-1.12-4.26-1.46-18.91-6.58-37.22-15.25-54.08-26.07-16.37-10.5-31.62-22.82-44.83-37.11-.52-.56-1.04-1.12-1.55-1.69-2.55-2.82-5.03-5.72-7.43-8.68h0,0c-10.53-13.01-19.49-27.31-26.08-42.72-3.66-8.54-6.69-17.38-8.8-26.43-1.11-4.73-2.04-9.5-2.73-14.3-.68-4.76-1.07-9.55-1.32-14.35-.48-9.41.06-18.92,1.45-28.23,1.51-10.14,4.23-20.06,7.79-29.66,3.48-9.42,7.97-18.41,13.15-27.01,5.28-8.77,11.4-17.06,18.2-24.71,6.94-7.82,14.5-15.06,22.63-21.63,4.19-3.39,8.53-6.54,13.12-9.37,4.55-2.8,9.32-5.25,14.18-7.46,6.95-3.15,14.19-5.63,21.56-7.61,5.48-1.47,11.04-2.52,16.63-3.47h0s.04.01.05.03,0,.03,0,.04c0,0,0,0,0,.01,0,.01-.01.02-.02.02-1.59.91-3.11,1.98-4.65,2.98-2.61,1.69-5.21,3.41-7.72,5.1-.05.03-.1.06-.14.1l-.05.04c-7.64,5.19-15.12,10.61-22.53,16.13-4.07,3.03-8.07,6.16-12.09,9.25-3.99,3.07-8.01,6.12-11.84,9.38-.79.66-1.57,1.34-2.34,2.01-5.45,4.85-10.62,9.96-15.49,15.39-4.56,5.23-8.82,10.7-12.74,16.43-3.31,4.97-6.31,10.12-9.01,15.45-2.61,5.33-4.93,10.78-6.91,16.37-1.89,5.59-3.41,11.28-4.62,17.05-1.18,6.05-2.02,12.13-2.47,18.28-.33,5.84-.32,11.68.03,17.52.46,6.13,1.3,12.2,2.5,18.22,1.32,6.15,2.99,12.2,5.02,18.16.34.96.69,1.91,1.05,2.86.04.1.07.2.11.29.02.06.05.12.07.18,1.39,3.65,2.9,7.24,4.54,10.78,0,.02.02.04.03.06.01.03.03.05.04.08.05.11.11.23.16.34.04.08.07.15.11.23.05.11.1.21.15.32.04.07.07.14.1.21.06.12.11.24.17.36.02.04.05.09.07.14.07.14.13.27.2.41.02.05.04.09.07.14.06.12.12.25.18.37.26.54.52,1.08.79,1.62.6,1.17,1.21,2.32,1.83,3.48.05.09.11.19.16.29.08.15.16.3.25.45.01.02.02.04.03.06,2.5,4.57,5.19,9.03,8.07,13.38.07.11.14.21.21.32,2.16,3.17,4.42,6.27,6.76,9.3.02.03.04.06.07.09.12.16.24.32.37.47.06.08.12.16.18.24.09.11.17.21.26.32.38.48.75.96,1.13,1.43.05.05.09.11.14.17.07.09.15.19.23.29.07.09.14.17.21.25l.19.23c.12.15.24.3.36.45.01.02.02.03.04.04.15.18.3.37.45.55,0,0,0,.01.01.02.15.18.3.36.45.54,0,0,0,0,0,0,.77.93,1.54,1.84,2.32,2.76,0,0,0,0,0,0,.15.18.3.36.45.53,0,0,.01.02.02.02.16.18.31.36.46.54,5.64,6.36,11.64,12.36,17.98,18.01,7.18,6.28,14.74,12.1,22.62,17.46,8.75,5.86,17.83,11.16,27.22,15.92.39.2.79.39,1.18.58.12.06.24.12.36.18h0s.05.02.08.04c1.16.57,2.33,1.12,3.5,1.68l.2.09s.02,0,.03.01c.38.18.76.36,1.14.53.07.04.14.07.21.1.05.02.09.04.14.07.17.08.35.16.52.24.1.05.2.09.3.14.15.07.29.13.44.2.09.04.17.08.26.12.2.09.4.18.6.27.08.04.15.07.23.11.16.07.32.14.48.21.07.04.14.07.21.1.21.09.41.18.61.27.08.04.17.07.25.11.05.02.1.05.15.07.12.06.25.11.37.17.09.04.17.07.25.11.18.08.35.16.52.23l.25.11c.2.09.4.18.6.26.09.04.18.08.27.12.14.06.28.12.42.18.08.04.17.07.25.11.2.09.4.17.61.26.08.04.16.07.25.11.17.07.34.14.51.21.06.02.11.05.17.07,0,0,.01,0,.02,0,.21.09.41.18.62.27.08.03.16.07.23.1.21.09.41.17.62.26.05.02.1.04.14.06.18.08.37.15.55.23.07.03.14.06.22.09.21.09.43.18.64.27.06.02.12.05.18.07.18.07.36.15.54.22.06.03.12.05.18.07.18.07.37.15.56.23.04.02.07.03.11.05.04.02.09.04.13.05.23.09.46.18.69.28,0,0,.01,0,.02,0,.18.07.36.14.53.21.07.03.14.06.21.09.02,0,.04.02.06.02.42.17.84.34,1.27.5.04.02.07.03.1.04.45.18.89.35,1.34.52.49.19.99.38,1.48.57.49.19.98.38,1.48.55.18.07.36.14.55.2.31.12.62.23.93.34.31.12.62.23.94.34.67.25,1.33.48,2,.71h0c.71.25,1.41.49,2.12.73.25.09.51.17.77.26.05.02.11.04.16.05.41.14.81.27,1.21.41h0c.08.03.16.05.24.08.07.02.14.05.2.07l1.37.45.33.11c.18.06.36.12.54.17.25.08.51.16.77.25.28.09.56.18.84.27,0,0,0,0,0,0,.02.01.04.02.07.02.68.21,1.36.43,2.05.63.02.01.04.02.06.02.71.22,1.42.43,2.13.64h0c.07.02.13.04.2.06.6.18,1.2.35,1.79.52.77.22,1.55.45,2.33.66.65.18,1.3.36,1.95.53.75.2,1.51.4,2.27.59h0c.7.18,1.41.36,2.12.54h0c.7.18,1.41.35,2.12.52h0c.59.14,1.18.28,1.77.42.1.02.19.04.29.07.05.01.11.03.16.04,2.1.49,4.2.95,6.3,1.39,1.46.29,2.93.57,4.41.85l.27.05c1.56.29,3.12.56,4.68.82h0c.78.13,1.56.26,2.34.38t0,0c2.34.38,4.7.72,7.05,1.03.05,0,.09.02.14.02,1.52.2,3.04.39,4.57.57t0,0c2.35.28,4.7.53,7.06.75.02,0,.04,0,.06,0,.78.07,1.56.14,2.34.21h0c.79.07,1.58.14,2.37.2h0c.79.07,1.58.12,2.37.18.64.04,1.29.08,1.94.11,1.29.07,2.59.14,3.88.19.61.03,1.23.05,1.84.07.59.02,1.18.04,1.77.06.09,0,.18,0,.27,0,.8.02,1.6.04,2.4.06,1.14.03,2.28.05,3.42.05.96.01,1.92.02,2.88.02,6.54,0,13.09-.22,19.63-.65,7.07-.52,14.11-1.32,21.11-2.38l.15-.02c4.88-.74,9.73-1.6,14.57-2.58,10.79-2.26,21.43-5.15,31.87-8.72,10.01-3.52,19.75-7.66,28.47-11.99.32-.16.65-.32.78-.39,8.77-4.43,17.28-9.32,25.45-14.79,2.43-1.66,4.83-3.37,7.31-4.95,2.06-1.31,4.14-2.58,6.18-3.93,1.08-.73,2.14-1.49,3.24-2.19.48-.3.96-.59,1.45-.87,0,0,0,0,0,0h0c.34-.2.68-.41,1.01-.62.44-.3.88-.62,1.31-.95.55-.42,1.1-.99,1.71-1.3,1.74-.89,4.04-.8,4.77,1.34Z"/>
  <path class="cls-3" d="m801.58,873.69c-10.72-.11-21.39-1.42-31.82-3.88-10.22-2.41-20.12-6.04-29.58-10.59-9.38-4.51-18.16-10.19-26.37-16.57-3.95-3.07-7.69-6.41-11.29-9.89-.22-.21-.44-.43-.66-.64t0,0c-3.36-3.29-6.57-6.74-9.55-10.38-6.56-8.01-12.4-16.61-17.12-25.85-4.92-9.64-8.77-19.75-11.48-30.23-1.27-4.89-2.25-9.84-2.83-14.87-.58-4.97-.7-10.02-.48-15.02.41-9.49,2.21-18.9,5.21-27.91,1.88-5.63,4.3-11.08,7.13-16.29,0,0,0-.01,0-.01,0,0,.02,0,.02,0,0,0,.02.02,0,.03h0c-.37,5.19-.53,10.39-.52,15.2,0,.16,0,.31,0,.46v.71c.11,9.71.89,19.36,2.18,28.98,1.38,9.42,3.01,18.86,5.5,28.05,1.59,5.51,3.51,10.91,5.73,16.2,2.25,5.08,4.76,10.02,7.55,14.82l.35.58c2.95,4.79,6.14,9.39,9.59,13.83,3.42,4.23,7.04,8.25,10.89,12.09,4,3.85,8.19,7.46,12.6,10.84,4.09,3.02,8.32,5.82,12.7,8.4,4.89,2.77,9.91,5.25,15.08,7.44,5.11,2.07,10.31,3.83,15.62,5.31,5.84,1.52,11.73,2.69,17.7,3.5,5.5.65,10.99.98,16.53,1h0c5.91-.09,11.8-.51,17.66-1.3,5.71-.86,11.36-2.06,16.93-3.59,5.4-1.58,10.69-3.46,15.88-5.66,5.35-2.36,10.54-5.02,15.57-8,4.75-2.89,9.32-6.04,13.71-9.45,4.35-3.46,8.48-7.17,12.39-11.12,3.82-3.98,7.41-8.14,10.78-12.5,3.57-4.76,6.84-9.72,9.84-14.87,3.17-5.61,5.99-11.41,8.48-17.36,2.59-6.34,4.75-12.8,6.34-18.76,1.23-4.62,2.22-9.3,3.19-13.98.73-3.52,1.38-7.08,1.88-10.64.1-.9.06-1.85.34-2.71.31-.98,1.25-2.04,2.33-2.04.01,0,.02,0,.03,0h0s.04,0,.05,0c.01,0,.03,0,.04,0,0,0,.01,0,.02,0,.14.01.29.05.43.1,1.43.53,1.91,2.02,1.99,3.4.06,1.14.21,2.27.34,3.4.36,3.08.47,6.22.48,9.33,0,.87,0,1.74-.02,2.61-.09,4.86-.66,9.77-1.45,14.56-.74,4.53-1.8,8.99-2.99,13.42-.04.15-.08.29-.12.44,0,.02-.01.04-.02.07-.04.13-.07.26-.11.39,0,.02,0,.03-.01.05-1.27,4.56-2.85,9.06-4.68,13.45h0s0,0,0,0c-1.63,3.89-3.46,7.7-5.46,11.39-4.73,8.74-10.36,16.98-16.85,24.52-13.26,15.39-29.85,28.11-48.39,36.48-9.33,4.21-19.03,7.52-29.04,9.71-10.12,2.21-20.46,3.32-30.83,3.32-.49,0-.98,0-1.46,0Z"/>
  <path class="cls-3" d="m541.71,269.47s.05.1.03.15c0,.02-.02.04-.03.05,0,0,0,0-.01,0,0,.01-.01.02-.02.02-.01.01-.02.02-.04.02t0,0h0s-.04,0-.06,0c-14.61-4.7-29.37-8.82-44.2-12.71-5.65-1.48-11.32-2.9-16.96-4.4-.95-.25-1.9-.5-2.85-.75l-.22-.06c-.22-.06-.44-.11-.66-.17-.16-.04-.31-.08-.46-.12-.03-.01-.07-.02-.1-.03-.66-.17-1.32-.33-1.98-.49-.05-.01-.1-.03-.15-.04-.27-.07-.53-.13-.8-.2-.14-.03-.28-.07-.42-.1-.14-.04-.29-.07-.43-.1-2.93-.7-5.88-1.37-8.84-1.98-11.02-2.16-22.15-3.64-33.35-4.43-5.61-.34-11.22-.51-16.83-.51-1.57,0-3.14.01-4.71.04-.53,0-1.05.02-1.57.03-.12,0-.25,0-.37,0-.71.02-1.42.04-2.13.06.13,0,.27-.01.4-.02-.62.02-1.25.04-1.87.07-.13,0-.27.01-.4.02-.62.02-1.25.05-1.87.08h-.05c-.59.03-1.17.05-1.76.09-.18,0-.36.02-.54.03-.45.02-.9.05-1.36.08-.45.02-.89.05-1.34.08-11.2.84-22.32,2.36-33.32,4.59-1.16.25-2.31.5-3.46.76-.44.1-.88.2-1.32.3-.71.16-1.42.33-2.13.5-.04.01-.09.02-.13.03-.27.07-.53.13-.8.2-.23.06-.47.12-.71.18h0s-.05.01-.07.02c-.26.06-.51.13-.77.2-.14.03-.28.07-.41.1l-1.24.32c-.11.03-.22.06-.33.09-.82.21-1.64.43-2.46.66-.71.19-1.41.38-2.12.58-.78.22-1.57.44-2.34.67-.06.02-.12.04-.19.05-.45.13-.89.26-1.34.39-.32.1-.64.2-.96.29-.32.09-.63.19-.95.29-.03,0-.06.02-.09.03-.26.08-.52.16-.79.24-.09.03-.19.06-.28.09-.21.07-.41.13-.62.2-.13.04-.25.08-.38.12-.18.05-.35.11-.53.17-.12.04-.23.07-.36.11-.23.07-.45.14-.67.21l-.36.12c-.14.05-.28.09-.42.14-.13.04-.26.09-.39.13-.22.07-.43.14-.65.21-.12.04-.25.08-.38.12-.16.05-.31.1-.46.15-.06.02-.12.04-.18.06-.03.01-.06.02-.09.03-.03,0-.06.02-.09.03-.23.07-.46.15-.7.23-.07.02-.16.05-.23.07-.01,0-.02,0-.03.01-.26.09-.53.18-.79.27-.83.29-1.66.59-2.48.89l-.22.08c-1.7.62-3.4,1.27-5.09,1.93-.86.34-1.71.68-2.57,1.03-.03.01-.05.02-.08.03-.83.34-1.66.68-2.48,1.03-.85.36-1.7.72-2.55,1.09-.84.37-1.69.74-2.54,1.12-.58.25-1.15.51-1.72.78-.27.12-.54.25-.8.37-.04.02-.07.04-.11.05-.01,0-.03.01-.04.02-.14.07-.27.13-.41.2-.14.06-.28.13-.42.19-.06.03-.11.05-.17.08-.45.21-.89.42-1.34.63-.08.04-.16.07-.24.11-.42.2-.84.4-1.26.61-.94.45-1.88.91-2.82,1.38t0,0s-.04.02-.06.03h0c-1.66.86-3.31,1.72-4.95,2.61-.82.44-1.64.89-2.45,1.34-.81.45-1.62.91-2.43,1.38-.81.46-1.61.93-2.41,1.4-1.2.71-2.4,1.43-3.59,2.16-.4.24-.79.49-1.19.73-.7.43-1.4.88-2.1,1.32-.09.06-.18.11-.26.17-.59.38-1.18.75-1.76,1.14-.75.49-1.5.98-2.24,1.48-.16.11-.32.22-.47.33-.51.35-1.02.7-1.53,1.07-1.45,1.01-2.89,2.05-4.32,3.1-.61.45-1.21.9-1.82,1.35-.32.24-.65.49-.97.74-.45.34-.89.68-1.34,1.02-.68.53-1.36,1.06-2.04,1.59-.59.46-1.18.94-1.76,1.41-.09.07-.18.14-.26.21-.64.52-1.28,1.05-1.92,1.58-.01,0-.02.02-.03.03-.02,0-.03.02-.04.03-.61.51-1.22,1.02-1.83,1.54-.11.09-.21.18-.32.28-.59.51-1.19,1.02-1.78,1.54-.51.46-1.02.91-1.53,1.38-.34.3-.68.62-1.02.93-.84.77-1.68,1.55-2.51,2.34-.41.39-.83.79-1.24,1.19-.41.39-.82.8-1.23,1.2-.41.4-.82.8-1.22,1.21-.38.38-.75.75-1.13,1.13-2.48,2.51-4.89,5.09-7.24,7.72-.21.23-.41.46-.62.69l-.35.41c-2.43,2.79-4.8,5.62-7.05,8.55-2.68,3.47-5.23,7.04-7.69,10.68-.15.23-.3.46-.46.7-3.36,5.16-6.37,10.52-8.99,15.71-.05.11-.11.23-.17.34l-.03.06-.02.03c-1.25,2.54-2.46,5.09-3.6,7.68-1.73,3.89-3.32,7.84-4.73,11.86-3.02,8.83-5.32,17.91-7.19,27.05-.88,4.48-1.54,9-2.29,13.5-.13.8-.27,1.61-.4,2.41-.01.05-.02.11-.03.17,0,.05-.02.11-.03.16-.05.28-.1.55-.15.83h0c-.13.71-.28,1.41-.44,2.11-.15.66-.36,1.32-.61,1.94-.55,1.34-1.87,2.35-3.31,2.35-.26,0-.53-.04-.79-.11-1.78-.47-2.5-2.12-2.93-3.74-.27-1.01-.41-2.05-.53-3.1-.04-.38-.08-.75-.11-1.12-.34-3.54-.4-7.1-.25-10.65.16-3.75.38-7.51.82-11.25.47-3.94,1.15-7.85,1.99-11.73,1.73-8.06,4.21-15.95,7.11-23.66,3.15-8.4,7.09-16.48,11.57-24.25,4.53-7.86,9.55-15.44,15.16-22.58,5.55-7.07,11.69-13.71,18.21-19.89,13.96-13.23,29.82-24.48,46.79-33.53,17.38-9.27,35.86-16.38,54.95-21.27,14.35-3.68,28.98-6.05,43.71-7.27,3.46-.29,6.92-.5,10.39-.66h0s0,0,0,0c1.46-.07,2.92-.12,4.38-.16,20.55-.61,41.24,1.27,61.38,5.41,9.71,1.99,19.34,4.37,28.59,7.95,8.73,3.38,17.14,7.69,25.03,12.71,6.59,4.2,12.83,8.89,18.69,14.06.61.54,1.21,1.07,1.8,1.62,0,0,0,0,0,0Z"/>
  <path class="cls-3" d="m394.67,235.05c-2.84-1.05-3.12-4.37-3.24-6.96-.07-1.43,0-2.88.04-4.3.04-1.58.1-3.16.13-3.89.41-10.37,2.77-20.59,5.71-30.5,2.93-9.83,6.57-19.42,10.86-28.73l.81-1.73c8.73-18.49,19.83-35.91,32.92-51.63,6.86-8.24,14.11-16.11,21.87-23.52,7.68-7.34,15.77-14.22,24.21-20.67,16.79-12.82,35.02-23.75,54.11-32.77,18.66-8.81,38.23-15.79,58.25-20.75,21.19-5.26,42.8-8.35,64.62-9.31,21.27-.94,42.63.5,63.63,4,21.84,3.64,43.36,9.61,63.78,18.2,19.59,8.23,38.19,18.64,55.28,31.28,17.86,13.21,33.87,28.97,47.28,46.69,6.21,8.21,12.04,16.83,16.53,26.12,4.52,9.35,7.86,19.28,10.02,29.44.95,4.47,1.66,8.98,2.14,13.53.22,2.07.39,4.15.51,6.23.05.89.15,1.81.12,2.71.02.37-.52.62-.74.24-.63-1.07-1.12-2.25-1.68-3.36-1.29-2.57-2.62-5.11-3.94-7.61h0c-.03-.05-.05-.11-.08-.16-.12-.24-.25-.48-.56-1.05-4.72-8.81-9.75-17.45-15-25.96-2.47-4-4.97-7.98-7.51-11.94-2.61-4.07-5.17-8.17-7.92-12.16-.38-.55-.77-1.1-1.16-1.65-5.25-7.3-10.92-14.25-16.99-20.89-5.74-6.13-11.79-11.94-18.15-17.43-.04-.04-.09-.08-.13-.11-.16-.13-.31-.27-.47-.4-.17-.15-.35-.3-.52-.45-.02-.02-.04-.04-.06-.05l-.81-.69c-5.11-4.24-10.37-8.26-15.79-12.07-2.69-1.89-5.42-3.73-8.18-5.52-2.33-1.48-4.69-2.92-7.06-4.32-6.9-4.07-13.98-7.82-21.21-11.25-10.34-4.79-20.94-8.92-31.77-12.44-11.68-3.66-23.54-6.59-35.58-8.8-12.77-2.22-25.64-3.53-38.59-4.14-13.18-.49-26.35-.17-39.5.95-13.85,1.32-27.57,3.5-41.14,6.57-12.81,3-25.4,6.78-37.74,11.32-12.2,4.59-24.09,9.93-35.61,16-10.93,5.86-21.48,12.36-31.61,19.52-9.38,6.73-18.34,14-26.85,21.8-7.88,7.36-15.33,15.14-22.32,23.36-6.63,7.98-12.8,16.29-18.45,24.98-5.54,8.71-10.55,17.72-15,27.04-4.18,8.95-7.81,18.15-10.89,27.53-.04.12-.08.25-.12.38-2.31,7.23-4.28,14.57-6.3,21.89-.91,3.3-1.97,6.55-2.87,9.86-.41,1.51-.86,2.99-1.44,4.45-.38.96-.88,1.77-1.69,2.44-.76.64-1.73.96-2.7.96-.49,0-.99-.09-1.46-.26Z"/>
  <path class="cls-3" d="m1082.75,244.1c.07,1.76-1.11,3.21-2.73,3.75-1.76.58-3.48-.44-4.84-1.43-1.17-.84-2.28-1.77-3.43-2.64-.93-.72-1.84-1.48-2.73-2.23h0c-.58-.49-1.15-.97-1.74-1.45-1.12-.91-2.27-1.78-3.42-2.66-4.79-3.69-9.48-7.5-14.29-11.17-2.65-2.03-5.34-4-8.09-5.89-6.97-4.74-14.21-9.06-21.7-12.93-8.13-4.11-16.51-7.68-25.09-10.75-3.17-1.11-6.36-2.15-9.57-3.13-.15-.04-.3-.09-.45-.13-.07-.02-.13-.04-.2-.06l-.79-.23s-.03,0-.04-.01c-.12-.04-.25-.07-.37-.11-.02,0-.05-.02-.07-.02s-.04-.01-.07-.02c-.05-.02-.1-.03-.15-.04,0,0-.01,0-.02,0-.52-.15-1.03-.3-1.55-.45-.14-.04-.29-.08-.43-.12-.13-.04-.26-.07-.39-.11-.22-.06-.43-.12-.65-.18-.08-.02-.16-.05-.24-.07l-.8-.22s-.07-.02-.1-.03c-4.36-1.2-8.75-2.29-13.16-3.25-.02,0-.04-.01-.06-.02-.3-.07-.61-.13-.91-.2-9.49-1.97-19.09-3.43-28.76-4.21l-.75-.06c-6.1-.43-12.21-.75-18.32-.87-.17,0-.35,0-.52,0-1.18-.02-2.36-.02-3.53-.02h-.15c-.2,0-.39,0-.59,0-.09,0-.18,0-.27,0h-.34c-.2,0-.4,0-.61,0-.04,0-.09,0-.13,0-.37,0-.74,0-1.11.02h-.06c-.36,0-.72.02-1.08.02-.03,0-.07,0-.1,0-.39,0-.77.02-1.16.03-.39,0-.79.02-1.18.04-.18,0-.36.01-.55.02-.43.01-.86.03-1.3.05-.17,0-.33.01-.5.02-.08,0-.16,0-.24.01-.16,0-.32.01-.48.02-.54.02-1.08.05-1.62.07-.82.04-1.64.08-2.46.13-.27.02-.54.04-.81.05-6.03.4-12.04,1.02-18.02,1.82-.01,0-.02,0-.03,0-.15.02-.31.04-.46.07-.04,0-.07,0-.11.01-.12.02-.23.03-.34.05-.07,0-.14.02-.22.03-.06,0-.12.02-.18.03-4.61.64-9.21,1.39-13.79,2.25-.46.09-.93.17-1.39.26-11.56,2.31-22.95,5.33-34.12,9.07-3.09,1.06-6.16,2.17-9.21,3.33,0,0-.01,0-.02,0-.16.06-.32.12-.48.18-.06.02-.12.05-.18.07l-.3.12c-3.46,1.33-6.89,2.72-10.3,4.18-.06.03-.12.05-.18.08-.06.02-.12.05-.19.08-.74.32-1.47.64-2.21.96-.55.25-1.1.49-1.64.74-2.51,1.12-5,2.29-7.47,3.49-9.43,4.7-18.61,9.91-27.41,15.71-7.61,5.12-14.96,10.63-21.2,16-.1.09-.2.17-.3.25l-.64.55c-1,.88-2,1.77-2.99,2.66-5.34,4.83-10.44,9.91-15.25,15.26-5.12,5.81-9.89,11.9-14.3,18.26-.13.19-.25.38-.38.57-.04.05-.07.11-.11.16-.11.16-.22.33-.33.49-.02.03-.04.05-.05.08-.14.21-.27.41-.41.61,0,0,0,.01-.01.02-5.94,9.01-11.08,18.53-16.04,28.11-.09.18-.19.36-.19.38-4.46,8.82-8.5,17.8-11.75,26.8-.09.26-.19.52-.27.77-.71,2.03-1.39,4.06-2.05,6.1-.44,1.35-.91,2.7-1.28,4.07-.02.07-.06.13-.11.17-.03.02-.07.04-.11.04-.02,0-.04,0-.06,0h-.02c-.16,0-.32-.11-.32-.3,0,0,0-.01,0-.02h0c-.08-1-.21-2.01-.29-3.01-.12-1.49-.2-2.99-.25-4.48-.04-1.04-.05-2.08-.05-3.11,0-3.11.14-6.23.39-9.33.68-8.51,2.4-16.96,5.05-25.07,2.74-8.39,6.66-16.29,11.21-23.84,4.5-7.46,9.57-14.57,15.07-21.31,10.6-13,22.82-24.61,36.06-34.88,13.75-10.66,28.74-19.63,44.38-27.23,15.79-7.67,32.39-13.61,49.38-18.03,16.77-4.36,33.94-7.17,51.23-8.38,8.03-.56,16.04-.8,24.09-.77,0,0,0,0,0,0h0c.49,0,.97,0,1.46,0,1.36.01,2.71.04,4.07.07,7.28.2,14.54.77,21.79,1.59,16.38,1.86,32.64,5.02,48.36,10.06,16.2,5.19,31.93,12.16,46.44,21.07,6.04,3.71,11.86,7.76,17.42,12.15,2.62,2.07,5.14,4.26,7.58,6.52,1.09,1.01,2.18,2.03,3.21,3.11.85.89,1.65,1.83,2.45,2.77.25.29.5.57.61.7.08.09.16.19.24.29l.06.07c1.22,1.42,2.37,2.88,3.5,4.38,1.47,1.96,2.96,3.92,4.27,6,.61.97,1.19,1.96,1.74,2.96.34.63.67,1.26.98,1.9.42.86.66,1.77.7,2.72Z"/>
  <path class="cls-3" d="m1360.88,427.61c1.32,17.04-.11,34.23-4.07,50.84-1.54,6.47-3.52,12.8-5.81,19.03-6,16.11-14.47,31.23-24.93,44.87-10.57,13.79-23.12,25.98-37.02,36.4-6.43,4.82-13.19,9.2-20.18,13.16-3.2,1.81-6.48,3.58-9.91,4.91-.86.34-1.74.61-2.63.84-.97.25-1.96.45-2.96.61-.95.14-1.89.24-2.81.24-1.21,0-2.4-.16-3.6-.57-1.38-.56-2.44-1.54-2.61-3.13-.13-1.27.47-2.51,1.06-3.59.58-1.05,1.39-1.93,2.21-2.79,1.32-1.38,2.79-2.67,4.33-3.79,1.05-.76,2.14-1.46,3.25-2.15h0c1.67-1.04,3.37-2.03,5.03-3.06,3.25-2.02,6.48-4.08,9.64-6.23,4.73-3.23,9.34-6.63,13.82-10.22,6.5-5.31,12.68-11,18.47-17.08,5.17-5.55,9.99-11.39,14.43-17.53,4.07-5.76,7.8-11.75,11.15-17.97,3.07-5.87,5.79-11.89,8.16-18.07,2.29-6.21,4.2-12.53,5.72-18.97,1.36-6.09,2.38-12.23,3.03-18.43.55-5.84.78-11.69.7-17.55,0-.39-.01-.78-.02-1.17,0-.07,0-.14,0-.21-.21-6.3-.79-12.59-1.71-18.82-1.09-6.83-2.6-13.57-4.5-20.22-2.02-6.79-4.46-13.44-7.26-19.94-3.2-7.19-6.84-14.16-10.91-20.9-.14-.22-.27-.44-.41-.66-3.34-5.38-6.94-10.59-10.78-15.63-1.02-1.34-2.05-2.66-3.09-3.97-2.2-2.69-4.46-5.33-6.79-7.91l-.02-.02c-.09-.1-.18-.2-.27-.29-4.48-4.98-9.19-9.77-14.05-14.38-2.71-2.52-5.47-5-8.29-7.41-3.2-2.74-6.48-5.41-9.82-7.97-1.64-1.26-3.3-2.49-4.97-3.7-8.45-5.99-17.34-11.3-26.46-16.2-2.55-1.35-5.13-2.65-7.71-3.89-5.12-2.48-10.24-4.75-15.21-6.72-.98-.39-1.96-.77-2.93-1.14-10.23-3.82-20.71-6.91-31.34-9.41-10.69-2.43-21.49-4.16-32.39-5.29-2.02-.2-4.04-.38-6.05-.54-.03,0-.06,0-.09,0h0c-7.8-.62-15.62-.94-23.45-.89-.16,0-.33,0-.49,0-.28,0-.57,0-.85.01.03,0,.06,0,.09,0-.07,0-.15,0-.23,0-.38,0-.76.01-1.14.02-.07,0-.13,0-.2,0h-.09c-.36,0-.71.01-1.07.02-.1,0-.21,0-.31,0h-.15c-.11,0-.23,0-.34.01-.5.02-1,.04-1.5.05-.48.02-.96.04-1.43.06-.03,0-.06,0-.09,0-.38.02-.75.04-1.13.05l-.73.04c-.37.02-.74.04-1.11.06-1,.05-2,.12-2.99.19-.4.03-.8.05-1.21.09-.21.02-.43.03-.65.05-.38.03-.75.06-1.13.09-.52.04-1.04.08-1.56.13-.66.06-1.32.12-1.98.18-.89.08-1.79.17-2.68.27-.86.09-1.71.18-2.57.28l-.22.02c-.43.05-.87.1-1.3.16-.08,0-.16.02-.23.03-.46.05-.91.11-1.37.17-.62.08-1.23.16-1.85.24-1.85.24-3.69.51-5.53.79-10.02,1.61-19.93,3.84-29.69,6.63-7.64,2.25-15.18,4.86-22.53,7.94-7.58,3.18-15.25,6.14-22.81,9.39-.29.12-.58.25-.87.38-.04.02-.09.04-.13.06-.05.02-.09.04-.14.06-.03.01-.05.02-.08.04-6.07,2.71-12.04,5.66-17.97,8.68-5.52,2.8-11.03,5.67-16.33,8.84-.16.1-.31.19-.47.28,0,0,0,0-.01,0h0s-.04-.04-.01-.05c0,0,0,0,0,0,4.25-5,8.67-9.84,13.52-14.27,5.91-5.4,12.36-10.21,19.05-14.6,3.78-2.48,7.65-4.81,11.64-6.92,3.61-1.91,7.35-3.56,11.15-5.05,7.88-3.09,15.89-5.81,24.03-8.13,6.56-1.87,13.2-3.46,19.89-4.78h0c4-.79,8.02-1.48,12.05-2.07,5.99-.88,12.02-1.55,18.05-2.01,16.73-1.29,33.61-1.09,50.28.74,17.04,1.88,33.96,5.51,50.33,10.6,8.23,2.56,16.33,5.52,24.32,8.73,7.91,3.18,15.67,6.74,23.22,10.7,7.33,3.84,14.43,8.1,21.36,12.63,7.32,4.79,14.47,9.87,21.22,15.43,6.71,5.52,13.1,11.43,19.04,17.77,6,6.41,11.6,13.21,16.77,20.31,9.81,13.49,17.88,28.22,23.94,43.77,6.16,15.8,9.98,32.56,11.28,49.47Z"/>
  <path class="cls-3" d="m995.78,809.38c-9.38-.31-18.8-1.03-28.09-2.39-3.8-.56-7.58-1.18-11.34-1.95-2.33-.48-4.65-1.03-6.96-1.62-1.79-.46-3.54-.95-5.25-1.63-3.55-1.4-7.2-2.55-10.53-4.44-.91-.52-1.76-1.11-2.61-1.71-1.37-.98-2.95-2.2-2.84-4.08.04-.52.2-1.03.49-1.46.95-1.42,2.6-1.56,4.14-1.75.26-.04.54-.06.81-.09,0,0,0,0,0,0,0,0,0,0,0,0h0s.1,0,.15-.01c.16-.01.32-.03.47-.04.12,0,.24-.01.36-.02.01,0,.02,0,.03,0,.04,0,.08,0,.11,0h.01c.09,0,.18,0,.26-.01.2,0,.41-.01.61-.01h0s0,0,0,0c1.54-.02,3.06.02,4.59.18,1.88.19,3.75.44,5.63.55,3.67.23,7.29.81,10.93,1.32,3.57.5,7.14,1.02,9.75,1.36,6.21.79,12.43,1.49,18.68,1.95,6.49.48,13.01.7,19.52.71h0c11.89-.05,23.78-.89,34.59-2.23l1.15-.15c12.31-1.65,24.51-4.02,36.54-7.14,11.89-3.17,23.52-7.07,34.93-11.7,9.99-4.15,19.7-8.86,29.11-14.2,9-5.22,17.63-10.98,25.91-17.29,7.77-6.05,15.17-12.54,22.12-19.51,6.27-6.41,12.18-13.14,17.46-20.08.07-.09.13-.18.2-.27l.13-.17c4.66-6.26,8.94-12.76,12.37-18.69.32-.56.64-1.12.95-1.69,3.63-6.48,6.8-13.19,9.62-20.05,2.54-6.43,4.7-12.97,6.48-19.64,1.55-6.14,2.76-12.32,3.61-18.59.77-6.46,1.18-12.93,1.21-19.43-.06-6.21-.45-12.38-1.2-18.54-.87-6.41-2.11-12.73-3.71-18.98-1.73-6.39-3.83-12.65-6.29-18.79-.08-.2-.17-.4-.25-.6-2.6-6.17-5.55-12.17-8.83-18.01-3.79-6.53-7.98-12.79-12.54-18.8-4.87-6.22-10.09-12.11-15.65-17.71-6.08-5.96-12.52-11.51-19.28-16.69-2.66-1.99-5.36-3.91-8.09-5.77-2.8-1.9-5.64-3.75-8.53-5.52-2.34-1.44-4.7-2.84-7.09-4.2-8.45-4.68-17.16-8.85-26.1-12.52-6.59-2.63-13.28-4.98-20.05-7.05-3.26-1-6.54-1.94-9.84-2.81-3.61-.92-7.23-1.76-10.86-2.53-.02,0-.03,0-.05-.01,0,0-.02,0-.03,0-5.32-1.12-10.68-2.1-16.06-2.97-9.03-1.46-18.03-3.12-27.05-4.65-11.39-1.93-22.8-3.65-34.23-5.33h0c-.16-.04-.21-.29-.02-.34,13.94-4.12,28.46-6.42,43-6.61.01,0,.02,0,.04,0,4.83-.06,9.66.08,14.47.48,4.84.41,9.63,1.15,14.4,2.01,9.57,1.73,19.04,3.97,28.37,6.7,9.32,2.72,18.47,6,27.42,9.77,9,3.79,17.71,8.16,26.21,12.97,17.38,9.85,33.28,22.2,47.25,36.45,13.81,14.09,25.33,30.52,33.86,48.31.06.13.13.27.19.4.02.04.04.07.05.11.04.09.09.19.13.28.03.06.05.12.08.17.04.08.07.15.11.23.03.06.06.12.08.18.03.07.07.15.1.22.03.06.06.12.09.18.03.07.07.15.1.22.03.06.05.12.08.18.04.08.07.15.11.23.03.06.05.12.08.18.04.08.07.15.11.23.03.06.05.11.08.17.04.08.08.17.11.25.02.05.05.1.07.15.06.13.12.26.17.38.03.08.07.15.1.23.02.05.05.11.07.16.04.08.07.16.1.24.03.06.05.11.07.17.03.08.07.15.1.23.03.06.05.11.08.17.03.08.07.16.1.24.02.05.05.11.07.16.03.08.07.16.11.24.02.05.05.1.07.16.03.08.07.16.1.24.02.05.05.11.07.16.04.08.07.17.11.25.01.03.03.06.04.1.15.36.3.71.45,1.07,0,0,0,0,0,0,.05.11.09.22.14.33,0,.02.02.05.03.07.04.1.08.2.13.3.01.03.03.06.04.1.04.1.08.2.12.3.01.03.03.07.04.1.04.1.08.2.12.3.01.03.02.06.04.09.04.11.09.22.13.33,0,.01,0,.02.01.03,5.32,13.23,8.87,27.14,10.6,41.3,0,0,0,0,0,0,.26,2.11.48,4.23.65,6.36,1.69,20.24-.7,40.74-6.31,60.23-5.39,18.73-14.04,36.46-24.93,52.59-11.05,16.38-24.45,31.02-39.43,43.88-14.79,12.69-31.22,23.4-48.45,32.46-17.28,9.09-35.56,16.2-54.36,21.43-19.12,5.31-38.83,8.52-58.64,9.67-5.55.32-11.11.47-16.68.47-3.77,0-7.53-.07-11.29-.19Z"/>
  <path class="cls-1" d="m426.82,860.44c.26.12.52.24.78.36-.26-.12-.52-.24-.78-.36Z"/>
  <path class="cls-1" d="m426.4,860.25h0c.05.02.11.05.16.07-.05-.02-.11-.05-.16-.07Z"/>
  <path class="cls-1" d="m672.8,691.59h0s0-.03,0-.04c.01,0,.02.02,0,.03h0c-.37,5.2-.53,10.4-.52,15.2,0-4.81.15-10.01.52-15.2Z"/>
  <path class="cls-1" d="m933.6,788.27c1.96-4.69,3.63-9.5,4.94-14.39,1.19-4.43,2.25-8.89,2.99-13.42.79-4.8,1.37-9.7,1.45-14.56.01-.87.02-1.74.02-2.61,0,.87,0,1.74-.02,2.61-.09,4.86-.66,9.77-1.45,14.56-.74,4.53-1.8,8.99-2.99,13.42-1.31,4.89-2.98,9.7-4.94,14.39h0s0,0,0,0h0Z"/>
  <path class="cls-1" d="m939.76,727.05h0s0,0,0,0h0s0,0,0,0Z"/>
  <path class="cls-1" d="m939.66,727.05h0s.04,0,.05,0h0s-.04,0-.05,0Z"/>
  <path class="cls-1" d="m939.62,727.05s.02,0,.03,0c-.01,0-.02,0-.03,0Z"/>
  <path class="cls-1" d="m681.98,347.51s0,0-.01,0c0,0,0,0,.01,0Z"/>
  <path class="cls-1" d="m682,347.51s0,0,0,0c0,0,0,0,0,0Z"/>
  <path class="cls-1" d="m682.03,347.5s0,0,0,0c0,0,0,0,0,0Z"/>
  <path class="cls-1" d="m682.07,347.49s-.02,0-.02,0c0,0,.02,0,.02,0Z"/>
  <path class="cls-1" d="m682.09,347.48s-.01,0-.02,0c0,0,.01,0,.02,0Z"/>
  <path class="cls-1" d="m682.12,347.47s0,0-.01,0c0,0,0,0,.01,0Z"/>
  <path class="cls-1" d="m682.14,347.46s0,0,0,0c0,0,0,0,0,0Z"/>
  <path class="cls-1" d="m681.94,347.51s0,0-.01,0c0,0,0,0,.01,0Z"/>
  <path class="cls-1" d="m163.14,768.59h0s0,0,0,0Z"/>
  <path class="cls-1" d="m195.43,431.6c.3.02.61.03.91.05-.3-.02-.61-.04-.91-.05Z"/>
  <path class="cls-1" d="m185.27,431.33c.06,0,.12,0,.17,0-.06,0-.12,0-.17,0Z"/>
  <path class="cls-1" d="m251.07,307.79c-.8.81-1.58,1.62-2.37,2.44.78-.82,1.57-1.63,2.37-2.44Z"/>
  <path class="cls-2" d="m1345.34,437.34c.08,5.86-.15,11.71-.7,17.55-.65,6.2-1.67,12.35-3.03,18.43-1.52,6.44-3.43,12.76-5.72,18.97-2.37,6.19-5.09,12.2-8.16,18.07-3.35,6.22-7.07,12.21-11.15,17.97-4.44,6.14-9.26,11.98-14.43,17.53-5.79,6.09-11.96,11.77-18.47,17.08-4.47,3.59-9.08,6.99-13.82,10.22-3.16,2.16-6.39,4.22-9.64,6.23-1.66,1.04-3.36,2.02-5.03,3.06h0c-1.73-14.16-5.29-28.07-10.6-41.3,0,0,0-.02-.01-.03-.04-.11-.09-.22-.13-.32l-.04-.09c-.04-.1-.08-.2-.12-.3-.01-.03-.03-.07-.04-.1-.04-.1-.08-.2-.12-.3-.01-.03-.03-.07-.04-.1-.04-.1-.08-.2-.12-.3-.01-.02-.02-.05-.03-.07-.04-.11-.09-.22-.14-.33-.15-.36-.3-.71-.45-1.07-.01-.04-.03-.07-.04-.1-.04-.08-.07-.17-.11-.25-.02-.05-.04-.11-.07-.16-.04-.08-.07-.16-.11-.24-.02-.05-.04-.11-.07-.16-.04-.08-.07-.16-.11-.24-.02-.05-.05-.11-.07-.16-.04-.08-.07-.16-.1-.23-.03-.06-.05-.12-.08-.17-.03-.08-.07-.15-.1-.23-.03-.05-.05-.11-.07-.17l-.11-.23c-.02-.05-.05-.11-.07-.16-.04-.08-.07-.16-.1-.23-.06-.12-.12-.25-.18-.38-.02-.05-.04-.1-.07-.15-.04-.08-.08-.17-.12-.25-.02-.05-.05-.11-.08-.17l-.11-.23c-.03-.06-.05-.12-.08-.18-.04-.07-.07-.15-.11-.23l-.08-.18-.11-.22c-.03-.06-.05-.12-.09-.18-.04-.07-.07-.15-.1-.22l-.08-.18c-.04-.07-.07-.15-.11-.23-.03-.05-.05-.11-.08-.17-.04-.09-.09-.19-.13-.28-.02-.04-.04-.07-.05-.11-.07-.13-.13-.27-.2-.41-8.54-17.79-20.05-34.21-33.86-48.31-13.97-14.26-29.87-26.61-47.25-36.45-8.5-4.81-17.21-9.18-26.21-12.97-8.95-3.77-18.1-7.05-27.42-9.77-9.33-2.72-18.8-4.97-28.37-6.7-4.77-.86-9.57-1.6-14.4-2.01-4.81-.41-9.64-.54-14.47-.48h-.04c-14.54.2-29.06,2.5-43,6.61-.19.06-.13.31.02.34h0c11.43,1.68,22.84,3.41,34.23,5.33,9.02,1.53,18.02,3.19,27.05,4.65,5.38.87,10.73,1.84,16.06,2.97,0,0,.02,0,.03,0,.02,0,.04,0,.05.01,3.63.77,7.25,1.61,10.86,2.53,3.3.88,6.58,1.81,9.84,2.81,6.78,2.08,13.46,4.43,20.05,7.05,8.94,3.67,17.64,7.83,26.1,12.52,2.39,1.36,4.75,2.76,7.09,4.2,2.88,1.78,5.73,3.62,8.53,5.52,2.73,1.86,5.43,3.79,8.09,5.77,6.76,5.18,13.2,10.73,19.28,16.69,5.56,5.6,10.78,11.49,15.65,17.71,4.56,6.01,8.75,12.27,12.54,18.8,3.28,5.84,6.23,11.84,8.83,18.01.08.2.17.4.25.6,2.46,6.14,4.56,12.4,6.29,18.79,1.61,6.26,2.84,12.58,3.71,18.98.74,6.16,1.13,12.34,1.2,18.54-.03,6.5-.44,12.97-1.21,19.43-.85,6.27-2.06,12.45-3.61,18.59-1.79,6.67-3.95,13.22-6.48,19.64-2.82,6.87-6,13.58-9.62,20.05-.32.56-.64,1.12-.95,1.69-3.43,5.93-7.71,12.43-12.37,18.69l-.13.17c-.07.09-.13.18-.2.27-5.29,6.94-11.2,13.68-17.46,20.08-6.96,6.97-14.36,13.46-22.12,19.51-8.28,6.3-16.91,12.06-25.91,17.29-9.41,5.34-19.12,10.05-29.11,14.2-11.4,4.63-23.04,8.53-34.93,11.7-12.03,3.11-24.23,5.49-36.54,7.14l-1.15.15c-10.81,1.34-22.69,2.18-34.59,2.23h0c-6.51-.02-13.03-.23-19.52-.71-6.25-.46-12.47-1.17-18.68-1.95-2.62-.33-6.18-.85-9.75-1.36-3.64-.52-7.25-1.09-10.93-1.32-1.88-.12-3.75-.36-5.63-.55-1.53-.15-3.05-.19-4.59-.18h0c-.2,0-.41,0-.61.02-.09,0-.18,0-.27,0h-.02s-.07,0-.11,0h-.03c-.12,0-.24.02-.36.02-.16,0-.32.02-.47.04h-.15s0,.01,0,.01c.23-.55.46-1.1.68-1.65.02-.04.03-.08.05-.11.21-.52.41-1.03.61-1.55.18-.47.36-.95.54-1.42.26-.69.51-1.39.75-2.09.18-.5.35-1.01.51-1.52,0,0,0-.02,0-.02.16-.49.32-.98.48-1.48.04-.13.09-.26.12-.39.15-.47.29-.95.43-1.42l.04-.12c.16-.56.32-1.12.48-1.68,0-.02.01-.03.02-.05l.11-.39s.01-.05.02-.07c.04-.15.08-.29.12-.44,1.19-4.43,2.25-8.89,2.99-13.42.79-4.8,1.37-9.7,1.45-14.56.02-.86.02-1.73.02-2.61,0-3.11-.12-6.25-.48-9.33-.13-1.13-.28-2.26-.34-3.4-.07-1.38-.56-2.88-1.99-3.4-.14-.05-.29-.09-.43-.1h-.02s-.03,0-.04,0h-.06s-.02,0-.04,0c-1.08,0-2.02,1.06-2.33,2.04-.28.86-.24,1.81-.34,2.71-.51,3.56-1.16,7.12-1.88,10.64-.96,4.68-1.96,9.36-3.19,13.98-1.59,5.96-3.75,12.43-6.34,18.76-2.49,5.95-5.32,11.75-8.48,17.36-2.99,5.15-6.27,10.11-9.84,14.87-3.37,4.37-6.96,8.53-10.78,12.5-3.91,3.95-8.04,7.66-12.39,11.12-4.39,3.41-8.96,6.56-13.71,9.45-5.03,2.98-10.22,5.64-15.57,8-5.19,2.19-10.48,4.07-15.88,5.66-5.57,1.53-11.21,2.72-16.93,3.59-5.86.79-11.75,1.21-17.66,1.3h0c-5.54-.02-11.03-.35-16.53-1-5.97-.82-11.87-1.98-17.7-3.5-5.3-1.48-10.51-3.24-15.62-5.31-5.17-2.19-10.19-4.67-15.08-7.44-4.38-2.58-8.61-5.38-12.7-8.4-4.41-3.38-8.59-6.99-12.6-10.84-3.85-3.84-7.47-7.86-10.89-12.09-3.45-4.44-6.64-9.04-9.59-13.83l-.35-.58c-2.8-4.8-5.31-9.74-7.55-14.82-2.23-5.29-4.14-10.69-5.73-16.2-2.5-9.2-4.12-18.63-5.5-28.05-1.28-9.62-2.07-19.27-2.17-28.98v-.71c0-.15,0-.31,0-.46,0-4.81.15-10.01.52-15.2h0s0-.03,0-.04c0,0-.02,0-.03,0,0,0,0,0,0,.01-2.84,5.21-5.25,10.66-7.13,16.29-3,9.01-4.8,18.42-5.21,27.91-.22,5-.1,10.05.48,15.02.58,5.03,1.56,9.97,2.83,14.87,2.71,10.48,6.56,20.59,11.48,30.23,4.72,9.23,10.56,17.84,17.12,25.85,2.98,3.64,6.18,7.09,9.54,10.38,0,0,0,0,0,0h0c-.48.29-.97.57-1.45.88-1.1.7-2.16,1.45-3.24,2.19-2.03,1.36-4.12,2.62-6.18,3.93-2.48,1.58-4.88,3.29-7.31,4.95-8.17,5.46-16.68,10.36-25.45,14.79-.13.07-.46.23-.78.39-8.72,4.33-18.46,8.48-28.47,11.99-10.44,3.57-21.08,6.46-31.87,8.72-4.84.98-9.7,1.84-14.57,2.58l-.15.02c-7,1.05-14.04,1.86-21.11,2.38-6.54.43-13.09.65-19.63.65-.96,0-1.92,0-2.88-.02-1.14-.01-2.28-.03-3.42-.05-.8-.02-1.6-.04-2.4-.06-.09,0-.18,0-.27,0-.59-.02-1.18-.04-1.77-.06-.61-.02-1.23-.04-1.84-.07-1.29-.05-2.59-.12-3.88-.19-.64-.04-1.29-.07-1.94-.11-.79-.05-1.58-.11-2.37-.18h0c-.79-.06-1.58-.12-2.37-.2h0c-.78-.06-1.56-.13-2.34-.21-.02,0-.04,0-.06,0-1.18-.11-2.36-.23-3.54-.35-1.18-.12-2.35-.26-3.53-.39t0,0c-1.52-.18-3.05-.37-4.57-.57-.05,0-.09-.01-.14-.02-2.36-.31-4.71-.66-7.05-1.03t0,0c-.78-.12-1.56-.25-2.34-.38h0c-1.56-.26-3.12-.53-4.68-.82l-.27-.05c-1.47-.27-2.94-.55-4.41-.85-1.05-.22-2.1-.45-3.15-.68-1.05-.23-2.1-.47-3.15-.71-.05,0-.11-.02-.16-.04-.1-.02-.2-.05-.29-.07-.59-.14-1.18-.27-1.77-.42h0c-.71-.17-1.41-.34-2.12-.52h0c-.71-.17-1.41-.35-2.12-.54h0c-.71-.18-1.41-.36-2.11-.55-.05-.01-.11-.02-.16-.04-.65-.18-1.3-.35-1.95-.53-.78-.21-1.56-.44-2.33-.66-.27-.08-.54-.16-.8-.23-.33-.1-.66-.19-.99-.29-.07-.02-.14-.04-.2-.06h0c-.71-.21-1.42-.43-2.13-.64-.02,0-.04,0-.06-.02-.68-.21-1.36-.42-2.05-.63h-.04s-.02-.02-.03-.02c0,0,0,0,0,0-.54-.17-1.07-.34-1.61-.51-.18-.05-.36-.11-.54-.17l-.33-.11-1.37-.45c-.07-.02-.14-.05-.2-.07-.08-.02-.16-.05-.24-.08h0c-.31-.11-.62-.21-.93-.31-.09-.03-.19-.06-.29-.09-.05-.02-.11-.04-.16-.05-.25-.09-.51-.17-.77-.26-.71-.24-1.41-.48-2.12-.72h0c-.49-.17-.98-.35-1.46-.53-.18-.06-.36-.13-.53-.19l-.94-.34s0,0,0,0l-.93-.34c-.18-.07-.36-.13-.54-.2h0c-.49-.18-.98-.37-1.48-.55,0,0,0,0,0,0-.49-.18-.98-.37-1.48-.56,0,0,0,0,0,0-.48-.18-.95-.37-1.43-.55-.42-.16-.84-.33-1.27-.5-.02,0-.04-.02-.06-.02-.07-.03-.14-.05-.21-.09-.18-.07-.36-.15-.55-.22-.23-.09-.46-.19-.69-.28-.05-.02-.09-.04-.13-.05-.04-.02-.07-.03-.11-.05t0,0c-.19-.07-.37-.15-.55-.22-.06-.02-.12-.05-.18-.07-.18-.07-.36-.15-.54-.22-.06-.02-.12-.05-.18-.07-.21-.09-.43-.18-.64-.27-.07-.03-.14-.06-.22-.09-.18-.08-.37-.15-.55-.23-.05-.02-.1-.04-.14-.06-.21-.09-.41-.18-.62-.26-.08-.03-.16-.07-.23-.1-.21-.09-.41-.18-.62-.27-.06-.03-.12-.05-.19-.08-.25-.11-.5-.21-.75-.32-.2-.09-.4-.17-.61-.26-.08-.04-.17-.07-.25-.11-.14-.06-.28-.12-.42-.18-.09-.04-.18-.08-.27-.12-.2-.09-.4-.17-.6-.26l-.25-.11c-.18-.08-.35-.16-.52-.23-.09-.04-.17-.07-.25-.11-.12-.05-.25-.11-.37-.17-.05-.02-.1-.04-.15-.07-.08-.04-.17-.07-.25-.11-.2-.09-.41-.18-.61-.27-.07-.03-.14-.06-.21-.1-.16-.07-.32-.14-.48-.21-.08-.04-.15-.07-.23-.11-.2-.09-.4-.18-.6-.27-.09-.04-.18-.08-.26-.12-.15-.07-.29-.14-.44-.2-.1-.05-.2-.09-.3-.14-.17-.08-.35-.16-.52-.24-.05-.02-.09-.04-.14-.07-.07-.04-.14-.07-.21-.1-.38-.18-.76-.35-1.14-.53,0,0-.02,0-.03-.01l-.2-.09c-1.17-.55-2.33-1.11-3.5-1.68-.03-.02-.05-.03-.08-.04h0c-.12-.06-.24-.12-.36-.18-.39-.2-.79-.39-1.18-.58-9.39-4.76-18.47-10.06-27.22-15.92-7.88-5.36-15.44-11.18-22.62-17.46-6.34-5.65-12.34-11.65-17.98-18.01-.16-.18-.31-.36-.46-.54,0,0-.01-.02-.02-.02-.15-.18-.3-.36-.45-.53,0,0,0,0,0,0-.78-.91-1.55-1.83-2.32-2.76,0,0,0,0,0,0-.15-.18-.3-.36-.45-.54,0,0,0-.01-.01-.02-.15-.18-.3-.37-.45-.55-.01-.02-.02-.03-.04-.04-.12-.15-.24-.3-.36-.45l-.19-.23c-.07-.08-.14-.17-.21-.25-.08-.1-.16-.2-.23-.29-.05-.06-.09-.12-.14-.17-.38-.48-.75-.95-1.13-1.43-.09-.11-.17-.22-.26-.32-.06-.08-.12-.16-.18-.24-.12-.16-.25-.32-.37-.47-.02-.03-.04-.06-.07-.09-2.34-3.03-4.59-6.13-6.76-9.3-.07-.11-.14-.21-.21-.32-2.88-4.35-5.57-8.81-8.07-13.38-.01-.02-.02-.04-.03-.06-.08-.15-.16-.3-.25-.45-.05-.1-.1-.2-.16-.29-.62-1.15-1.23-2.31-1.83-3.48-.27-.54-.53-1.08-.79-1.62-.06-.12-.12-.24-.18-.37-.02-.04-.04-.09-.07-.14-.07-.13-.13-.27-.2-.41-.02-.05-.04-.09-.07-.14-.05-.12-.11-.24-.17-.36-.03-.07-.06-.14-.1-.21-.05-.11-.1-.21-.15-.32-.04-.07-.07-.15-.11-.23-.05-.11-.11-.23-.16-.34-.01-.03-.03-.05-.04-.08,0-.02-.02-.04-.03-.06-1.64-3.54-3.15-7.13-4.54-10.78-.02-.06-.05-.12-.07-.18-.04-.1-.07-.2-.11-.29-.36-.95-.71-1.91-1.05-2.86-2.04-5.95-3.71-12-5.02-18.16-1.19-6.03-2.03-12.09-2.5-18.22-.35-5.84-.36-11.68-.03-17.52.45-6.15,1.29-12.23,2.47-18.28,1.22-5.78,2.73-11.46,4.62-17.05,1.99-5.59,4.3-11.04,6.91-16.37,2.7-5.33,5.7-10.48,9.01-15.45,3.92-5.73,8.18-11.19,12.74-16.43,4.88-5.43,10.04-10.54,15.49-15.39.78-.67,1.56-1.34,2.34-2.01,3.83-3.26,7.85-6.31,11.84-9.38,4.02-3.1,8.02-6.22,12.09-9.25,7.41-5.52,14.89-10.94,22.53-16.13l.05-.04s.1-.07.14-.1c2.51-1.69,5.11-3.41,7.72-5.1,1.54-1,3.06-2.08,4.65-2.98.01,0,.02,0,.02-.02h0s0-.04,0-.05-.02-.03-.05-.03h0c-5.59.95-11.15,2-16.63,3.47-7.37,1.98-14.61,4.46-21.56,7.61-4.86,2.2-9.64,4.66-14.18,7.46-4.59,2.83-8.93,5.98-13.12,9.37-8.13,6.57-15.7,13.81-22.63,21.63-6.8,7.66-12.91,15.94-18.2,24.71-5.18,8.6-9.67,17.59-13.15,27.01-3.55,9.61-6.28,19.53-7.79,29.66-1.38,9.31-1.93,18.83-1.45,28.23.25,4.8.64,9.59,1.32,14.35.69,4.8,1.62,9.57,2.73,14.3,2.11,9.05,5.15,17.89,8.8,26.43,6.59,15.41,15.55,29.71,26.08,42.71h0c-.09.06-.18.12-.27.18-5.45,3.57-10.91,7.04-16.71,10-4.15,2.04-8.39,3.83-12.75,5.38-4.14,1.38-8.34,2.53-12.6,3.45-4.42.87-8.88,1.47-13.37,1.82-4.52.27-9.04.26-13.57,0-4.33-.34-8.61-.91-12.87-1.73-4.45-.94-8.81-2.14-13.11-3.6-4.03-1.45-7.96-3.12-11.8-5.01-3.75-1.93-7.38-4.05-10.89-6.38-3.48-2.39-6.82-4.97-10.02-7.74-3.12-2.8-6.08-5.76-8.88-8.88-1.11-1.29-2.2-2.6-3.25-3.94-.01-.02-.03-.04-.04-.05-.06-.08-.12-.16-.18-.24-.09-.12-.18-.23-.28-.35,0,0,0-.01-.01-.02-1.06-1.36-2.09-2.75-3.09-4.16-.3-.42-.59-.84-.89-1.27-.07-.11-.14-.22-.21-.33-1.34-2.04-2.61-4.12-3.82-6.23-.04-.07-.08-.15-.12-.22-.04-.07-.07-.13-.11-.2-.09-.16-.18-.32-.27-.48h-.01c-.46-.84-.91-1.68-1.36-2.53,0-.01-.01-.02-.02-.04-.02-.04-.05-.08-.07-.12-.12-.23-.24-.45-.36-.68-1.98-4-3.7-8.11-5.19-12.31-.24-.73-.48-1.46-.71-2.19-.01-.04-.03-.09-.04-.13,0-.03-.02-.05-.02-.08-.32-1.02-.62-2.05-.91-3.07,0-.02-.01-.03-.02-.05-.03-.09-.05-.19-.08-.28l-.13-.47c-.02-.08-.04-.16-.07-.25,0,0,0-.01,0-.02-.02-.07-.04-.14-.06-.22-.3-1.12-.58-2.25-.85-3.39-.18-.74-.34-1.49-.5-2.23-.84-4.3-1.43-8.64-1.77-13.02-.27-4.47-.27-8.94,0-13.41.33-4.34.91-8.64,1.73-12.91.94-4.43,2.13-8.77,3.58-13.06.68-1.9,1.41-3.78,2.2-5.63.89-2.11,1.83-4.18,2.84-6.24,3.55-6.93,7.36-13.69,11.69-20.16,3.66-5.36,7.62-10.5,11.89-15.38,1.64-1.84,3.33-3.64,5.05-5.39.38-.39.76-.78,1.14-1.16.04-.05.09-.09.14-.14,0,0,0,0,.01,0,1.11-1.1,2.22-2.19,3.36-3.26,1.1-1.03,2.21-2.04,3.34-3.04.47-.41.98-.88,1.51-1.31,0,0,0-.01,0-.02,0,0,0,0-.01,0-.94.27-1.88.54-2.81.84-8.58,2.75-16.64,6.84-23.95,12.09-3.77,2.7-7.36,5.74-10.66,9.06-3.3,3.32-6.32,6.92-8.97,10.73-6.01,8.65-10.38,18.41-13.4,28.48-2.82,9.43-4.38,19.12-4.8,28.95-.58,13.68,1.45,27.6,5.83,40.64h0c-.34-.08-.68-.16-1.02-.25l-.35-.08c-.14-.04-.29-.07-.44-.11-.16-.04-.32-.07-.48-.11-.06-.02-.13-.03-.2-.05-.22-.05-.44-.11-.66-.16-.06-.01-.12-.03-.18-.04-.21-.05-.43-.1-.64-.15-.08-.02-.17-.04-.25-.06-.13-.03-.26-.06-.39-.09-2.78-.64-5.56-1.26-8.34-1.91-6.23-1.47-12.4-3.14-18.48-5.15-.63-.21-1.26-.42-1.89-.63-1.38-.49-2.76-1-4.13-1.52-2.19-.83-4.37-1.71-6.53-2.62-3.41-1.45-6.78-3-10.11-4.64-6.43-3.27-12.69-6.93-18.73-10.96-6-4.09-11.75-8.53-17.21-13.31-1-.88-1.98-1.78-2.96-2.69-.02-.02-.05-.05-.07-.07-.14-.13-.29-.27-.43-.4-.02-.01-.03-.02-.04-.04-.29-.27-.57-.54-.86-.81-1.17-1.11-2.32-2.23-3.46-3.37-.03-.03-.05-.05-.08-.08l-.53-.53c-.15-.15-.3-.3-.45-.46-.04-.04-.08-.08-.12-.12-.19-.19-.37-.38-.55-.57,0,0-.01-.01-.02-.02,0,0-.01-.01-.02-.02-.08-.08-.15-.16-.23-.23-1.84-1.9-3.64-3.84-5.4-5.82-1.99-2.29-3.92-4.63-5.8-7.02-.05-.06-.1-.12-.14-.19-.03-.04-.07-.08-.1-.12-.25-.32-.49-.63-.73-.95-.02-.03-.05-.06-.07-.09-.1-.14-.21-.27-.31-.41-.09-.11-.17-.22-.25-.33-.05-.06-.09-.12-.14-.18-.11-.15-.23-.3-.34-.46-.01-.02-.02-.03-.03-.04-1.73-2.28-3.39-4.6-5.02-6.96-3.25-4.86-6.27-9.86-9.04-15-.7-1.3-1.39-2.62-2.06-3.94-.4-.8-.79-1.62-1.18-2.43-.02-.04-.03-.07-.05-.1-.06-.12-.11-.24-.17-.36-.54-1.13-1.06-2.27-1.57-3.41-2.04-4.54-3.89-9.17-5.56-13.88-2.48-7.25-4.49-14.62-6.05-22.11-1.23-6.23-2.16-12.51-2.74-18.84h0c-.03-.31-.05-.62-.08-.92l-.02-.27c-.04-.45-.07-.89-.11-1.33,0-.06-.01-.13-.02-.2-.49-7.73-.5-15.46-.01-23.18.56-7.57,1.59-15.07,3.07-22.51,1.56-7.39,3.57-14.66,6.02-21.8,2.42-6.79,5.22-13.43,8.41-19.89,3.31-6.52,7-12.81,11.05-18.89,4.12-6.02,8.57-11.77,13.36-17.27,1.73-1.93,3.5-3.83,5.31-5.69,3.06-3.15,6.23-6.19,9.5-9.12,5.52-4.81,11.29-9.27,17.33-13.4,1.22-.81,2.45-1.61,3.68-2.38,2.46-1.55,4.95-3.05,7.48-4.48,2.52-1.43,5.07-2.8,7.66-4.12.21-.1.41-.2.62-.3,2.46-1.2,4.95-2.35,7.46-3.44.05-.02.1-.04.15-.07.16-.07.33-.14.49-.21.23-.1.46-.2.69-.3.01,0,.03-.01.04-.02,3.57-1.52,7.18-2.93,10.83-4.24.98-.33,1.96-.66,2.95-.98.06-.02.12-.04.18-.06.15-.05.31-.1.46-.15.1-.03.2-.06.3-.1.09-.03.18-.05.27-.09.58-.18,1.16-.36,1.75-.54.19-.06.38-.12.57-.17.05-.02.1-.03.14-.04.17-.05.33-.1.5-.15.08-.02.16-.05.24-.07.14-.04.27-.08.41-.12l.43-.13c.08-.02.16-.04.24-.07,2.35-.68,4.72-1.32,7.1-1.91.05-.01.09-.02.14-.04.12-.03.23-.05.34-.08.16-.04.32-.08.48-.12.02,0,.04-.01.06-.02,1.56-.38,3.13-.73,4.7-1.07,2.33-.46,4.66-.88,7-1.25.03,0,.07-.01.1-.02.06,0,.12-.02.18-.03.47-.07.95-.15,1.42-.22.12-.02.24-.04.36-.05.07,0,.13-.02.19-.03,4.23-.62,8.48-1.1,12.75-1.44.22-.02.44-.04.65-.05,2.22-.14,4.45-.24,6.66-.3.21,0,.41-.01.62-.02.04,0,.07,0,.11,0,2.38-.05,4.75-.07,7.13-.03.42,0,.83.01,1.25.02.42,0,.84.02,1.25.03.42,0,.83.02,1.25.04.42.01.84.03,1.25.05.42.02.83.03,1.25.05.42.02.83.04,1.25.06.3.02.61.03.91.05,7.66.57,15.25,1.61,22.79,3.11,7.38,1.58,14.64,3.59,21.79,6.02,6.95,2.48,13.72,5.35,20.33,8.62,6.12,3.13,12.05,6.58,17.77,10.39,6.21,4.23,12.16,8.81,17.84,13.75,3.98,3.55,7.83,7.24,11.48,11.13,3.77,4.03,7.47,8.12,11.13,12.24.19.22.38.43.57.65,8.65,9.97,16.95,20.25,24.38,31.17.12.17.23.34.34.5.9,1.34,1.91,2.86,2.92,4.4.54.83,1.16,1.65,1.63,2.52,0,.02.02.03.03.04h.01s0,.02.02.02c.02.01.05.02.07.02h.04s.02-.01.04-.02c.03-.02.05-.04.07-.06h0s0-.01,0-.02c0,0,0,0,0-.02,0-.02,0-.05,0-.07h0s0,0,0,0c-.47-2.48-.95-4.95-1.54-7.4-.94-3.85-2.05-7.65-3.33-11.39-2.87-8.37-6.49-16.48-11.11-24.04-2.58-4.22-5.38-8.3-8.44-12.18-2.89-3.66-6.08-7.12-9.37-10.44-6.39-6.44-13.2-12.46-20.45-17.91-6.78-5.1-13.95-9.73-21.38-13.85-15.88-8.8-33.11-15.48-50.92-19.15-4.57-.94-9.14-1.81-13.77-2.41l-.52-.07c-.06,0-.12-.02-.19-.02-.1-.01-.21-.03-.31-.04-.08-.01-.16-.02-.25-.03s-.16-.02-.25-.03c-.1-.01-.19-.02-.29-.04-.02,0-.03,0-.04,0-.28-.04-.57-.07-.85-.1,0,0-.01,0-.02,0-.14-.02-.29-.04-.43-.05-.02,0-.03,0-.04,0-.56-.07-1.12-.13-1.68-.19-.05,0-.11-.01-.16-.02-.09,0-.18-.02-.26-.03-.14-.02-.27-.03-.41-.04-.02,0-.04,0-.05,0-1.14-.12-2.29-.23-3.43-.32h0l.15-.83c0-.05.02-.11.03-.16.01-.05.02-.11.03-.17.14-.8.27-1.61.4-2.41.75-4.5,1.41-9.02,2.29-13.5,1.87-9.14,4.17-18.22,7.19-27.05,1.41-4.02,3.01-7.97,4.73-11.86,1.14-2.58,2.35-5.14,3.6-7.68l.02-.03.03-.06c.05-.11.11-.22.17-.34,2.62-5.19,5.63-10.55,8.99-15.71.15-.23.3-.46.46-.7,2.46-3.63,5.01-7.2,7.69-10.68,2.25-2.93,4.63-5.76,7.05-8.55l.35-.41c.2-.23.41-.46.62-.69,2.35-2.64,4.76-5.21,7.24-7.72.38-.38.75-.76,1.13-1.13.4-.41.81-.81,1.22-1.21.41-.4.82-.8,1.23-1.2.41-.4.82-.8,1.24-1.19.83-.79,1.66-1.57,2.51-2.34.34-.31.68-.62,1.02-.93.5-.46,1.02-.92,1.53-1.38.59-.52,1.18-1.03,1.78-1.54.11-.09.21-.19.32-.28.61-.52,1.21-1.03,1.83-1.54.66-.55,1.32-1.09,1.99-1.64.09-.07.17-.14.26-.21.58-.47,1.17-.94,1.76-1.41.68-.54,1.35-1.07,2.04-1.59.45-.34.89-.69,1.34-1.02.32-.25.64-.5.97-.74.6-.45,1.21-.91,1.82-1.35,1.43-1.05,2.87-2.09,4.32-3.1.51-.36,1.02-.71,1.53-1.07.16-.11.31-.22.47-.33.75-.5,1.49-.99,2.24-1.48.59-.38,1.17-.76,1.76-1.14.09-.05.17-.11.26-.17.7-.45,1.4-.88,2.1-1.32,1.58-.98,3.17-1.95,4.77-2.89.8-.47,1.61-.94,2.41-1.4.81-.46,1.62-.92,2.43-1.38.82-.45,1.63-.9,2.45-1.34,1.64-.89,3.29-1.75,4.95-2.61h0s.04-.02.06-.03t0,0c.94-.46,1.88-.93,2.82-1.38.42-.2.84-.41,1.26-.61.08-.04.16-.08.24-.11.45-.21.89-.42,1.34-.63.05-.02.11-.05.17-.08.14-.06.28-.13.42-.19.14-.06.27-.13.41-.2.01,0,.03,0,.04-.02.04-.02.07-.04.11-.05.84-.39,1.68-.77,2.52-1.14,1.69-.75,3.38-1.49,5.09-2.2.82-.35,1.65-.69,2.48-1.03.02,0,.05-.02.08-.03.86-.35,1.71-.69,2.57-1.03,1.69-.66,3.38-1.31,5.09-1.93l.22-.08c.83-.3,1.66-.6,2.48-.89.26-.09.53-.18.79-.27.01,0,.02,0,.03-.01.07-.02.16-.05.23-.07.23-.08.46-.16.7-.23.06-.02.12-.04.18-.06.06-.02.12-.04.18-.06.15-.05.3-.1.46-.15.12-.04.25-.08.38-.12.21-.07.43-.14.65-.21.13-.04.26-.09.39-.13.14-.05.28-.09.42-.14l.36-.12c.22-.07.45-.14.67-.21.12-.04.24-.07.36-.11.18-.05.35-.11.53-.17.12-.04.25-.08.38-.12.2-.07.41-.13.62-.2.09-.03.18-.05.28-.09.26-.08.52-.16.79-.24.03-.01.05-.02.09-.03.27-.08.55-.17.82-.25l.08-.02c.78-.23,1.56-.47,2.35-.7.06-.02.12-.04.19-.05.78-.23,1.56-.45,2.34-.67.71-.2,1.41-.39,2.12-.58.82-.22,1.64-.44,2.46-.66.52-.14,1.05-.27,1.57-.4.14-.04.28-.07.41-.1.28-.07.56-.14.84-.21h0c.23-.06.47-.12.71-.18.27-.07.54-.13.8-.2.04-.01.09-.02.13-.03.71-.17,1.42-.34,2.13-.5.44-.1.88-.2,1.32-.3,1.15-.26,2.31-.52,3.46-.76,11.01-2.23,22.12-3.76,33.32-4.59.45-.03.89-.06,1.34-.08.45-.03.91-.05,1.36-.08.18-.01.36-.02.54-.03.59-.04,1.17-.06,1.76-.09h.05c.62-.03,1.25-.06,1.87-.08.13,0,.27,0,.4-.02.62-.03,1.25-.05,1.87-.07-.13,0-.27,0-.4.02.71-.02,1.42-.04,2.13-.06.12,0,.25,0,.37,0,.52-.01,1.05-.02,1.57-.03,1.57-.03,3.14-.04,4.71-.04,5.61,0,11.22.17,16.83.51,11.2.79,22.33,2.27,33.35,4.43,2.96.61,5.9,1.28,8.84,1.98.14.04.28.07.43.1.14.04.28.07.42.1.27.07.53.13.8.2.05.01.1.03.15.04.66.16,1.32.32,1.98.49.04,0,.07.02.1.03.16.04.31.08.46.12.22.05.44.11.66.17l.22.06c.95.24,1.9.49,2.85.75,5.64,1.5,11.31,2.92,16.96,4.4,14.83,3.89,29.59,8.01,44.2,12.71.02,0,.04,0,.06,0h.01s.03,0,.04-.02t0,0h0s0-.01,0-.02c0,0,.01,0,.01,0,.01-.02.02-.03.03-.05.02-.05,0-.11-.03-.15,0,0,0,0,0,0-.6-.54-1.2-1.08-1.8-1.62-5.86-5.16-12.1-9.86-18.69-14.06-7.89-5.03-16.3-9.34-25.03-12.71-9.26-3.59-18.88-5.96-28.59-7.95-20.14-4.14-40.82-6.02-61.38-5.41-1.46.04-2.92.1-4.38.16,0,0,0,0,0,0h0c.04-.14.07-.28.11-.41.9-3.3,1.96-6.56,2.87-9.86.38-1.37.75-2.75,1.13-4.12.38-1.37.75-2.75,1.14-4.11.25-.92.51-1.83.77-2.75.26-.91.52-1.82.78-2.73.13-.46.26-.91.4-1.37.27-.91.54-1.82.81-2.73h0c.41-1.37.83-2.73,1.27-4.08.04-.12.08-.25.12-.37h0c.38-1.18.78-2.34,1.18-3.51h0c1.23-3.57,2.54-7.12,3.94-10.63.2-.5.4-1,.6-1.5.23-.57.46-1.14.7-1.72.47-1.14.95-2.27,1.44-3.41.24-.57.49-1.14.74-1.7.5-1.13,1-2.25,1.52-3.38.25-.56.52-1.12.78-1.68,4.44-9.32,9.45-18.33,15-27.04,5.65-8.7,11.82-17.01,18.45-24.98,4.8-5.65,9.82-11.09,15.06-16.34.48-.48.95-.95,1.43-1.43,1.92-1.89,3.86-3.76,5.83-5.6,1.07-.98,2.14-1.95,3.21-2.9l1.42-1.25c1.42-1.25,2.86-2.48,4.3-3.7,0,0,0,0,0,0,1.93-1.62,3.88-3.23,5.85-4.8.98-.79,1.98-1.57,2.97-2.34.99-.78,1.99-1.55,3-2.3h0c2.01-1.53,4.04-3.02,6.09-4.5,10.13-7.15,20.68-13.66,31.61-19.52,11.53-6.07,23.42-11.41,35.61-16,7.71-2.84,15.53-5.38,23.43-7.62h0c1.58-.45,3.16-.89,4.75-1.31h0c1.59-.43,3.18-.84,4.77-1.23,1.59-.4,3.19-.79,4.79-1.16,3.39-.77,6.8-1.48,10.21-2.13,1.07-.2,2.13-.41,3.2-.6,1.01-.19,2.02-.36,3.04-.54.12-.02.23-.04.35-.06.95-.16,1.9-.32,2.85-.48.11-.02.22-.04.33-.05,1.02-.17,2.04-.32,3.06-.48h0c.75-.11,1.5-.22,2.25-.33,5.26-.76,10.54-1.39,15.84-1.9,1.2-.1,2.39-.2,3.59-.28.09,0,.17-.01.26-.02,1.26-.09,2.52-.18,3.79-.25.18-.01.35-.02.52-.03.25-.02.5-.03.75-.04.19-.01.38-.02.57-.04.12,0,.25-.02.37-.02.43-.02.85-.05,1.28-.07.55-.03,1.09-.06,1.64-.08.43-.02.86-.04,1.29-.06.12,0,.23-.01.35-.02.36-.02.72-.03,1.09-.04.19,0,.37-.02.55-.02.35-.01.7-.02,1.05-.04.05,0,.09,0,.14,0,.31-.01.63-.02.95-.03.38-.02.76-.02,1.14-.03h0c.35-.01.7-.02,1.05-.02.09,0,.19,0,.28,0,.11,0,.21,0,.32,0h.7c.86-.04,1.72-.04,2.58-.05,5.08-.05,10.16.02,15.25.2,12.95.62,25.82,1.92,38.59,4.14,12.04,2.21,23.9,5.14,35.58,8.8,10.84,3.52,21.43,7.65,31.77,12.44,7.24,3.44,14.32,7.18,21.21,11.25,2.38,1.4,4.73,2.84,7.06,4.32,2.76,1.79,5.49,3.62,8.18,5.52,5.42,3.81,10.69,7.83,15.79,12.07l.81.69s.04.04.06.05c.18.15.35.3.52.45.16.14.31.27.47.4.04.04.09.08.13.11,6.35,5.49,12.4,11.3,18.14,17.43,6.07,6.64,11.74,13.59,16.99,20.89.39.55.77,1.1,1.16,1.65,2.75,3.98,5.3,8.09,7.92,12.16,2.54,3.96,5.04,7.94,7.51,11.94,5.25,8.51,10.28,17.15,15,25.96.3.57.43.81.56,1.05.03.05.05.1.08.15h0s0,0,0,0c-8.04-.03-16.06.21-24.09.77-17.29,1.21-34.46,4.02-51.23,8.38-16.98,4.41-33.59,10.36-49.38,18.03-15.64,7.6-30.62,16.57-44.38,27.23-13.24,10.27-25.46,21.88-36.06,34.88-5.5,6.75-10.57,13.86-15.07,21.31-4.55,7.55-8.47,15.44-11.21,23.84-2.64,8.11-4.37,16.57-5.05,25.07-.25,3.1-.39,6.22-.39,9.33,0,1.04.02,2.07.05,3.11.05,1.5.12,2.99.25,4.48.08,1,.21,2.01.29,3.01h0s0,.02,0,.02c0,.18.15.29.32.3h.02s.04,0,.06,0c.04,0,.07-.02.11-.04.05-.04.09-.09.11-.17.38-1.37.84-2.72,1.28-4.07.66-2.04,1.34-4.07,2.05-6.1.09-.25.18-.51.27-.77,3.25-9,7.29-17.98,11.75-26.8,0-.01.09-.19.19-.38,4.96-9.58,10.1-19.1,16.04-28.11,0,0,0,0,.01-.02.14-.2.27-.41.41-.61.02-.03.04-.05.05-.08.11-.16.22-.32.33-.49.04-.05.07-.11.11-.16.13-.19.25-.38.38-.57,4.42-6.36,9.19-12.45,14.3-18.26,4.82-5.35,9.91-10.43,15.25-15.26.99-.89,1.98-1.78,2.99-2.66l.64-.55c.1-.08.2-.17.3-.25,6.24-5.37,13.59-10.88,21.2-16,8.8-5.8,17.97-11.01,27.41-15.71,2.47-1.2,4.96-2.36,7.47-3.49.55-.25,1.09-.49,1.64-.74.74-.32,1.47-.64,2.21-.96.06-.03.12-.05.19-.08.06-.03.12-.05.18-.08,3.41-1.46,6.84-2.86,10.3-4.18l.3-.12c.06-.02.12-.05.18-.07.16-.06.32-.12.48-.18,0,0,0,0,.02,0,3.05-1.16,6.12-2.27,9.21-3.33,11.18-3.74,22.57-6.76,34.12-9.07.46-.09.92-.18,1.39-.26,4.58-.86,9.18-1.61,13.79-2.25.06-.01.12-.02.18-.03.07,0,.14-.02.22-.03.11-.02.23-.04.34-.05.04,0,.07,0,.11-.01.15-.02.31-.04.46-.07.01,0,.02,0,.03,0,5.98-.8,11.99-1.41,18.02-1.82.27-.02.54-.04.81-.05.82-.05,1.64-.09,2.46-.13.54-.03,1.08-.05,1.62-.07.16,0,.32-.02.48-.02.08,0,.16,0,.24-.01.17,0,.34-.01.5-.02.43-.02.86-.04,1.3-.05.18,0,.36-.02.55-.02.39-.02.79-.03,1.18-.04.39-.01.77-.02,1.16-.03.78-.02,1.56-.04,2.34-.04.04,0,.09,0,.13,0,.2,0,.41,0,.61,0h.34c.09,0,.18,0,.27,0,.2,0,.4,0,.59,0h.15c1.18,0,2.35,0,3.53.02.17,0,.35,0,.52,0,6.11.11,12.22.43,18.32.87l.75.06c9.67.77,19.27,2.23,28.76,4.21.3.06.61.13.91.2.02,0,.04,0,.06.02,4.42.96,8.81,2.04,13.16,3.25.04.01.07.02.1.03l.8.22c.08.02.16.05.24.07.22.06.43.12.65.18.13.04.26.07.39.11.14.04.29.08.43.12.52.15,1.03.3,1.55.45,0,0,0,0,.02,0,.05.02.1.03.15.04.02,0,.04.01.07.02s.05.02.07.02c.12.04.25.07.37.11.01,0,.03,0,.04.01l.79.23c.07.02.13.04.2.06.15.04.3.09.45.13,3.21.98,6.4,2.02,9.57,3.13,8.58,3.07,16.96,6.64,25.09,10.75,7.49,3.86,14.73,8.18,21.7,12.93,2.75,1.89,5.43,3.87,8.09,5.89,4.8,3.67,9.5,7.48,14.29,11.17,1.14.88,2.3,1.75,3.42,2.66.59.48,1.16.96,1.74,1.45h0c-6.69,1.32-13.33,2.91-19.89,4.78-8.14,2.32-16.15,5.05-24.03,8.13-3.8,1.49-7.55,3.13-11.15,5.05-4,2.11-7.87,4.45-11.64,6.92-6.69,4.39-13.14,9.2-19.05,14.6-4.85,4.43-9.27,9.27-13.52,14.27,0,0,0,0,0,0-.03.02-.01.05.01.05h.01s0,0,0,0c.16-.09.32-.18.47-.28,5.3-3.17,10.81-6.04,16.33-8.84,5.93-3.02,11.9-5.97,17.97-8.68.03-.01.05-.02.08-.04.05-.02.09-.04.14-.06.04-.02.09-.04.13-.06.29-.12.58-.25.87-.38,7.55-3.25,15.23-6.21,22.81-9.39,7.35-3.08,14.88-5.69,22.53-7.94,9.76-2.8,19.67-5.02,29.69-6.63,1.84-.28,3.68-.55,5.53-.79.62-.08,1.23-.16,1.85-.24.46-.06.91-.11,1.37-.17.07-.01.15-.02.23-.03.43-.05.87-.11,1.3-.16l.22-.02c.86-.1,1.71-.19,2.57-.28.89-.09,1.79-.18,2.68-.27.66-.06,1.32-.12,1.98-.18.52-.05,1.04-.09,1.56-.13.38-.03.75-.06,1.13-.09.21-.02.43-.03.65-.05.4-.03.8-.06,1.21-.09,1-.07,2-.13,2.99-.19.37-.02.74-.04,1.11-.06l.73-.04c.38-.02.75-.04,1.13-.05.03,0,.06,0,.09,0,.48-.02.95-.04,1.43-.06.5-.02,1-.04,1.5-.05.12,0,.23,0,.34-.01h.15c.1,0,.21,0,.31,0,.36,0,.72-.02,1.07-.02h.09c.07,0,.13,0,.2,0,.38,0,.76-.01,1.14-.02.07,0,.15,0,.23,0-.03,0-.06,0-.09,0,.45,0,.89-.01,1.34-.02,7.83-.05,15.64.27,23.45.89h0s.06,0,.09,0c2.02.16,4.04.34,6.05.54,10.9,1.14,21.7,2.87,32.39,5.29,10.63,2.5,21.11,5.59,31.34,9.41.97.37,1.95.75,2.93,1.14,4.97,1.97,10.09,4.24,15.21,6.72,2.58,1.25,5.15,2.55,7.71,3.89,9.12,4.89,18.01,10.21,26.46,16.2,1.67,1.21,3.33,2.45,4.97,3.7,3.34,2.57,6.62,5.23,9.82,7.97,2.82,2.41,5.57,4.88,8.29,7.41,4.86,4.61,9.56,9.4,14.05,14.38.09.1.18.2.27.29l.02.02c2.32,2.58,4.59,5.22,6.79,7.91,1.05,1.31,2.08,2.64,3.09,3.97,3.84,5.04,7.43,10.25,10.78,15.63.14.22.27.44.41.66,4.06,6.74,7.71,13.71,10.91,20.9,2.8,6.5,5.24,13.15,7.26,19.94,1.9,6.65,3.41,13.39,4.5,20.22.92,6.24,1.5,12.52,1.71,18.82,0,.07,0,.14,0,.21,0,.39.01.78.02,1.17Z"/>
</svg>